HIERARCHY
ROOT root
{
  OFFSET 0.000000 0.000000 0.000000
  CHANNELS 6 Xposition Yposition Zposition Zrotation Yrotation Xrotation
  JOINT lhipjoint
  {
    OFFSET 0.000000 0.000000 0.000000
    CHANNELS 3 Zrotation Yrotation Xrotation
    JOINT lfemur
    {
      OFFSET 0.093514 -0.101759 0.035265
      CHANNELS 3 Zrotation Yrotation Xrotation
      JOINT ltibia
      {
        OFFSET 0.146598 -0.402774 0.000000
        CHANNELS 3 Zrotation Yrotation Xrotation
        JOINT lfoot
        {
          OFFSET 0.140680 -0.386515 0.000000
          CHANNELS 3 Zrotation Yrotation Xrotation
          JOINT ltoes
          {
            OFFSET 0.011122 -0.030557 0.121119
            CHANNELS 3 Zrotation Yrotation Xrotation
            End Site
            {
              OFFSET 0.000000 -0.000000 0.062794
            }
          }
        }
      }
    }
  }
  JOINT rhipjoint
  {
    OFFSET 0.000000 0.000000 0.000000
    CHANNELS 3 Zrotation Yrotation Xrotation
    JOINT rfemur
    {
      OFFSET -0.090915 -0.101759 0.035264
      CHANNELS 3 Zrotation Yrotation Xrotation
      JOINT rtibia
      {
        OFFSET -0.146475 -0.402436 0.000000
        CHANNELS 3 Zrotation Yrotation Xrotation
        JOINT rfoot
        {
          OFFSET -0.139294 -0.382707 0.000000
          CHANNELS 3 Zrotation Yrotation Xrotation
          JOINT rtoes
          {
            OFFSET -0.012996 -0.035705 0.120434
            CHANNELS 3 Zrotation Yrotation Xrotation
            End Site
            {
              OFFSET -0.000000 -0.000000 0.062975
            }
          }
        }
      }
    }
  }
  JOINT lowerback
  {
    OFFSET 0.000000 0.000000 0.000000
    CHANNELS 3 Zrotation Yrotation Xrotation
    JOINT upperback
    {
      OFFSET 0.001107 0.115965 -0.007965
      CHANNELS 3 Zrotation Yrotation Xrotation
      JOINT thorax
      {
        OFFSET 0.000576 0.116521 -0.003342
        CHANNELS 3 Zrotation Yrotation Xrotation
        JOINT lowerneck
        {
          OFFSET 0.000085 0.116730 0.000454
          CHANNELS 3 Zrotation Yrotation Xrotation
          JOINT upperneck
          {
            OFFSET 0.000402 0.088455 0.008449
            CHANNELS 3 Zrotation Yrotation Xrotation
            JOINT head
            {
              OFFSET 0.001935 0.088076 -0.005648
              CHANNELS 3 Zrotation Yrotation Xrotation
              End Site
              {
                OFFSET 0.000737 0.091756 -0.002972
              }
            }
          }
        }
        JOINT lclavicle
        {
          OFFSET 0.000085 0.116730 0.000454
          CHANNELS 3 Zrotation Yrotation Xrotation
          JOINT lhumerus
          {
            OFFSET 0.199929 0.051046 -0.009801
            CHANNELS 3 Zrotation Yrotation Xrotation
            JOINT lradius
            {
              OFFSET 0.274610 -0.000000 -0.000000
              CHANNELS 3 Zrotation Yrotation Xrotation
              JOINT lwrist
              {
                OFFSET 0.189402 -0.000000 0.000000
                CHANNELS 3 Zrotation Yrotation Xrotation
                End Site
                {
                  OFFSET 0.094701 -0.000000 0.000000
                }
              }
            }
          }
        }
        JOINT rclavicle
        {
          OFFSET 0.000085 0.116730 0.000454
          CHANNELS 3 Zrotation Yrotation Xrotation
          JOINT rhumerus
          {
            OFFSET -0.197444 0.042894 -0.018410
            CHANNELS 3 Zrotation Yrotation Xrotation
            JOINT rradius
            {
              OFFSET -0.283717 -0.000000 0.000000
              CHANNELS 3 Zrotation Yrotation Xrotation
              JOINT rwrist
              {
                OFFSET -0.189897 -0.000000 0.000000
                CHANNELS 3 Zrotation Yrotation Xrotation
                End Site
                {
                  OFFSET -0.094949 -0.000000 0.000000
                }
              }
            }
          }
        }
      }
    }
  }
}
MOTION
Frames: 17
Frame Time: 0.04166667
0.00000 0.96857 0.00000 1.63384 0.00002 -15.85924 0.00000 -0.00000 0.00000 -17.55245 -2.87171 -9.17207 2.53145 9.89486 28.63692 -0.25896 9.06904 -4.68829 0.04451 -1.36156 -3.74422 0.00000 -0.00000 0.00000 19.80663 -10.00638 13.68784 -1.68453 -8.17552 23.24846 -1.88628 -8.17381 -29.95852 -0.01080 0.67118 -1.84445 4.19235 2.77278 3.11579 1.19197 3.77241 2.70204 -1.18660 1.94121 1.22481 -0.70737 3.69971 -15.34970 -2.20161 5.29446 6.22796 -0.14184 2.44130 4.38165 -0.00000 0.00000 0.00000 53.63062 -76.72909 -75.57618 92.62542 -59.97394 -62.27348 0.00000 -0.00000 -31.15830 -0.00000 0.00000 0.00000 -179.19556 77.02026 159.22004 -40.57455 48.40663 -18.86781 -0.00000 0.00000 -18.37520
0.00000 0.96922 0.00000 0.97557 -0.48561 -15.19920 0.00000 -0.00000 0.00000 -16.79322 -3.02051 -10.20115 2.62718 10.06557 29.18932 -0.25943 9.08619 -4.76291 0.03714 -1.24388 -3.42010 0.00000 -0.00000 0.00000 20.61778 -9.56691 13.08046 -1.64361 -8.08054 22.95898 -1.81537 -8.44131 -29.67369 -0.02862 1.09200 -3.00200 4.59908 2.74619 3.58155 1.25553 3.75992 2.98971 -1.36181 1.94535 1.28446 -0.48530 3.64804 -15.23850 -2.70739 5.20065 5.32655 -0.35240 2.38391 4.10457 -0.00000 0.00000 0.00000 47.59487 -77.84769 -70.32599 90.26760 -59.99973 -60.23175 0.00000 -0.00000 -32.65290 -0.00000 0.00000 0.00000 172.25889 75.81790 150.49558 -39.17266 47.57202 -17.82613 -0.00000 0.00000 -19.25390
0.00000 0.96913 0.00000 0.10294 -0.66326 -14.22253 0.00000 -0.00000 0.00000 -15.91721 -3.51124 -11.58154 2.76367 10.30228 29.96126 -0.24762 8.97630 -5.27475 0.05105 -1.45803 -4.01005 0.00000 -0.00000 0.00000 21.67170 -9.01792 12.04376 -1.64892 -8.09295 22.99675 -1.75554 -8.95367 -29.62357 -0.05849 1.56049 -4.29248 4.86107 2.59035 3.98954 1.50912 3.56521 3.35427 -1.25311 1.85670 1.42309 -0.87417 3.61657 -14.60780 -2.36605 5.14802 3.69824 -0.22993 2.40142 3.87654 -0.00000 0.00000 0.00000 37.51255 -79.27468 -61.60226 88.04097 -59.98549 -58.30352 0.00000 -0.00000 -34.62300 -0.00000 0.00000 0.00000 163.50317 74.61708 141.79242 -38.24967 46.99802 -17.14795 -0.00000 0.00000 -19.75940
0.00000 0.96971 0.00000 -0.41778 -0.74317 -13.14924 0.00000 -0.00000 0.00000 -15.40966 -3.82094 -13.32875 2.90197 10.53464 30.72600 -0.23284 8.69047 -5.02059 0.03648 -1.23281 -3.38963 0.00000 -0.00000 0.00000 22.20962 -8.53035 10.77070 -1.66090 -8.12083 23.08170 -1.73604 -8.92657 -29.47824 -0.04712 1.40092 -3.85265 4.88278 2.56579 4.97021 1.52641 3.58300 3.58847 -1.29160 1.86235 1.12021 -0.26370 3.72172 -14.27970 -2.55810 5.16332 2.82583 -0.41590 2.42518 3.52699 -0.00000 -0.00000 0.00000 27.83103 -81.05157 -52.77315 83.26752 -59.82803 -54.17287 0.00000 -0.00000 -36.11520 -0.00000 -0.00000 0.00000 153.82881 73.54679 132.30635 -37.69948 46.64630 -16.74674 -0.00000 0.00000 -20.50630
0.00000 0.97052 0.00000 -0.69796 -0.61235 -12.16704 0.00000 -0.00000 0.00000 -15.35310 -3.88991 -14.61585 2.96717 10.64172 31.08087 -0.20257 8.21944 -5.23451 0.03382 -1.18707 -3.26369 0.00000 -0.00000 0.00000 22.28431 -8.18796 9.90786 -1.64379 -8.08098 22.96032 -1.67913 -9.16742 -29.26830 -0.05514 1.51529 -4.16788 4.21138 2.30866 6.30320 1.91995 3.28334 3.70457 -0.56793 1.68373 0.41774 -0.69116 3.94120 -13.63960 -2.47788 5.49804 2.22727 -0.30984 2.60389 3.17899 0.00000 -0.00000 0.00000 3.27293 -82.36425 -29.88507 78.72288 -59.51397 -50.24967 0.00000 -0.00000 -37.67480 0.00000 -0.00000 0.00000 143.64607 70.90595 122.39203 -36.67253 45.97015 -16.00416 -0.00000 0.00000 -22.15090
0.00000 0.97158 0.00000 -1.82136 -0.80953 -10.72208 0.00000 -0.00000 0.00000 -14.24953 -3.72771 -16.89623 3.14139 10.92049 32.01219 -0.16591 7.49045 -4.93882 0.06038 -1.58550 -4.36146 0.00000 -0.00000 0.00000 23.48877 -7.32611 8.91322 -1.54806 -7.85338 22.26963 -1.55005 -9.73066 -28.80451 -0.04461 1.36311 -3.74848 4.68718 2.23659 7.68225 2.32384 3.28772 3.91093 -0.47539 1.67853 -0.12599 -0.56227 3.81906 -13.57570 -2.91315 5.31460 1.40002 -0.49728 2.50901 2.89674 -0.00000 -0.00000 0.00000 -26.69842 -82.57705 -1.82149 73.67251 -58.96834 -45.90896 0.00000 -0.00000 -39.79650 -0.00000 -0.00000 0.00000 135.11835 68.51247 114.11120 -35.56086 45.20849 -15.21002 -0.00000 0.00000 -23.11650
0.00000 0.97255 0.00000 -1.97331 -1.08878 -9.25967 0.00000 -0.00000 0.00000 -14.26854 -3.34152 -18.76407 3.24986 11.08895 32.58045 -0.11702 6.65396 -5.37249 0.00385 -0.40093 -1.10164 0.00000 -0.00000 0.00000 23.37358 -6.52467 7.87494 -1.50653 -7.75215 21.96376 -1.47748 -10.00038 -28.50937 -0.06022 1.58349 -4.35590 4.23798 2.00308 8.81350 2.46403 2.99323 4.30853 -0.09732 1.52082 -0.38153 0.08365 4.03680 -13.86980 -3.78021 5.54406 1.18251 -0.87331 2.59269 2.93425 -0.00000 0.00000 0.00000 -52.30309 -80.44532 21.80234 67.88553 -58.06898 -40.97247 0.00000 -0.00000 -40.26940 -0.00000 0.00000 0.00000 128.91876 65.18037 108.66484 -34.22576 44.25130 -14.27037 -0.00000 0.00000 -24.79130
0.00000 0.97380 0.00000 -1.93913 -1.18655 -7.34450 0.00000 -0.00000 0.00000 -14.70514 -2.92176 -20.85310 3.22996 11.05832 32.47684 -0.08770 5.94436 -5.15029 0.01158 -0.69486 -1.90955 0.00000 -0.00000 0.00000 23.06540 -5.25612 5.99454 -1.59647 -7.96946 22.62135 -1.63053 -9.46872 -29.15629 -0.05249 1.47848 -4.06641 4.04909 1.89331 9.83606 1.98784 2.85145 4.92393 -0.49477 1.45699 -0.29228 0.16438 3.92624 -13.54410 -3.35097 5.29216 -0.76159 -0.78679 2.51679 2.18948 -0.00000 -0.00000 0.00000 -66.37246 -77.96654 34.83186 63.06764 -57.07346 -36.90505 0.00000 -0.00000 -43.15070 -0.00000 -0.00000 0.00000 125.11045 62.06008 104.13147 -32.67172 43.07618 -13.19733 -0.00000 0.00000 -25.35230
0.00000 0.97507 0.00000 -3.23159 -2.13230 -5.30830 0.00000 -0.00000 0.00000 -13.65035 -2.16798 -23.24512 3.33665 11.22104 33.02903 -0.04132 5.29939 -6.06669 0.00288 0.34657 0.95226 0.00000 -0.00000 0.00000 24.11064 -3.75064 4.88047 -1.49782 -7.73070 21.89906 -1.48212 -9.90361 -28.46926 -0.06674 1.66675 -4.58555 5.54477 1.74773 11.04800 1.59982 2.81881 5.64789 -1.75249 1.48113 -0.09395 1.03391 4.26697 -13.07590 -3.24346 5.54148 -3.15125 -0.91731 2.67303 1.33792 -0.00000 0.00000 0.00000 -75.73836 -74.68968 42.84702 57.20592 -55.51823 -32.02684 0.00000 -0.00000 -43.80500 -0.00000 0.00000 0.00000 121.98251 58.60939 100.37440 -31.48063 42.12917 -12.39102 -0.00000 0.00000 -26.41540
0.00000 0.97827 0.00000 -2.97609 -2.89600 -2.29316 0.00000 -0.00000 0.00000 -14.60862 -1.65425 -26.56263 3.37178 11.27387 33.20916 -0.03673 4.89664 -5.53671 0.11259 -2.16340 -5.95745 0.00000 -0.00000 0.00000 23.35762 -1.82168 2.29410 -1.50856 -7.75713 21.97879 -1.34640 -10.41701 -27.91711 -0.05432 1.50403 -4.13683 4.55199 1.48302 11.73710 1.32815 2.37183 6.30632 -1.44318 1.25045 0.15511 -0.82596 4.35182 -11.57830 -2.08857 5.79950 -7.17344 -0.32779 2.89878 -0.29669 -0.00000 -0.00000 0.00000 -80.73736 -70.76359 44.76521 51.33172 -53.51868 -27.24133 0.00000 -0.00000 -44.68710 -0.00000 -0.00000 0.00000 120.10629 55.10315 99.04938 -29.89208 40.80072 -11.33904 -0.00000 0.00000 -28.63420
0.00000 0.98133 0.00000 -3.27212 -4.15554 0.95407 0.00000 -0.00000 0.00000 -14.72251 -1.21344 -29.72204 3.32803 11.20802 32.98469 -0.01294 4.23646 -5.50561 0.08582 -1.88958 -5.20059 0.00000 -0.00000 0.00000 23.02283 0.17387 -0.45940 -1.46341 -7.64532 21.64187 -1.20218 -10.51605 -26.95927 -0.07694 1.78934 -4.92383 3.94499 1.27832 12.92300 0.93198 2.05036 7.04609 -1.49994 1.08462 0.26598 0.32530 4.65124 -12.54950 -3.63558 5.98756 -8.56160 -0.98105 2.96092 -0.48815 0.00000 -0.00000 0.00000 -83.46218 -68.25319 44.93342 44.48907 -50.51571 -21.84370 0.00000 -0.00000 -45.95550 0.00000 -0.00000 0.00000 118.71458 51.84729 98.74325 -28.43906 39.51730 -10.40188 -0.00000 0.00000 -29.93770
0.00000 0.98378 0.00000 -3.93892 -6.15847 5.21466 0.00000 -0.00000 0.00000 -14.54434 -0.49018 -34.39636 3.45876 11.40305 33.65157 0.01820 3.67482 -6.00010 0.10461 -2.08560 -5.74227 0.00000 -0.00000 0.00000 22.79244 3.12644 -3.99294 -1.42019 -7.53644 21.31469 -1.14208 -9.80514 -25.93796 -0.00031 -0.11449 0.31457 2.82663 1.44544 13.40760 0.58749 2.13242 7.45286 -1.24775 1.09902 0.40496 -0.23691 5.31936 -11.86010 -2.66800 6.92151 -11.60680 -0.64862 3.47988 -1.60338 -0.00000 0.00000 0.00000 -86.74083 -65.56838 44.12001 37.72602 -46.66343 -16.76603 0.00000 -0.00000 -47.13010 -0.00000 0.00000 0.00000 117.46650 48.87339 97.91590 -26.54658 37.74335 -9.22021 -0.00000 0.00000 -31.09650
0.00000 0.98603 0.00000 -4.80344 -7.48217 8.61469 0.00000 -0.00000 0.00000 -14.25869 -0.11847 -37.87166 3.51569 11.48642 33.93848 0.03903 3.41784 -6.44787 0.01700 0.84172 2.31339 0.00000 -0.00000 0.00000 22.53071 4.57945 -7.21458 -1.41076 -7.51244 21.24270 -1.07555 -8.94012 -24.73629 -0.07005 1.70753 -4.69804 1.88164 1.08256 15.15450 0.36881 1.55262 7.90886 -0.90456 0.77288 -0.08673 -2.76786 6.66583 -6.67102 -2.38864 8.79061 -17.71320 -0.51803 4.61379 -4.76528 -0.00000 -0.00000 0.00000 -87.89575 -63.44062 40.22469 31.03457 -41.76383 -12.09286 0.00000 -0.00000 -45.82030 -0.00000 -0.00000 0.00000 116.83299 45.94583 98.40052 -24.95620 36.15919 -8.26405 -0.00000 0.00000 -33.24990
0.00000 0.98769 0.00000 -5.38847 -8.79908 12.63116 0.00000 -0.00000 0.00000 -14.28662 -0.15402 -42.08682 3.51285 11.48227 33.92419 0.03035 3.75899 -6.54082 0.14763 2.47600 6.82312 0.00000 -0.00000 0.00000 21.81849 6.35336 -11.17691 -1.41293 -7.51796 21.25924 -0.86815 -8.61841 -22.74254 -0.19846 2.86870 -7.91341 0.80958 1.08073 15.98770 -0.30687 1.38185 8.28289 -0.99375 0.66274 -0.14347 -0.49432 6.47605 -10.17300 -3.41754 8.39959 -14.82900 -0.97098 4.28992 -2.92372 0.00000 -0.00000 0.00000 -90.66707 -62.74009 39.46858 24.27006 -35.44853 -7.86263 0.00000 -0.00000 -47.82660 0.00000 -0.00000 0.00000 116.09007 44.35383 99.42244 -23.51194 34.64388 -7.42728 -0.00000 0.00000 -36.32290
0.00000 0.98649 0.00000 -7.03831 -9.90200 15.58701 0.00000 -0.00000 0.00000 -13.64623 0.96221 -46.01966 3.84645 11.95322 35.56669 0.05998 2.89359 -6.60272 0.02077 0.93055 2.55774 0.00000 -0.00000 0.00000 22.40393 7.68624 -13.15668 -1.31452 -7.26208 20.49417 -0.85291 -7.86552 -22.00495 -0.13813 2.39536 -6.59963 0.57986 0.76284 17.44230 -0.75867 0.89616 8.91621 -1.27801 0.41174 -0.23053 0.94669 6.96550 -10.09370 -4.61440 8.83839 -15.29720 -1.59893 4.47346 -2.97059 0.00000 0.00000 0.00000 -90.59723 -62.73716 35.15114 17.71761 -27.79406 -4.41677 0.00000 -0.00000 -46.54190 0.00000 0.00000 0.00000 116.31889 42.11003 99.67033 -22.43667 33.46701 -6.82509 -0.00000 0.00000 -37.59750
0.00000 0.98669 0.00000 -7.97083 -10.64649 18.22435 0.00000 -0.00000 0.00000 -13.53349 1.44148 -49.06046 4.04395 12.21867 36.50997 0.07466 2.40583 -6.62995 0.00080 0.18283 0.50232 0.00000 -0.00000 0.00000 22.40815 8.59539 -15.00887 -1.20365 -6.96058 19.59863 -0.75343 -7.78136 -21.01399 -0.20117 2.88811 -7.96741 -0.10799 0.43187 18.72720 -1.32538 0.31353 9.62986 -1.39447 0.10170 -0.13948 2.15090 7.41739 -11.59690 -6.00867 9.23449 -14.33560 -2.12767 4.62476 -2.25661 -0.00000 0.00000 0.00000 -90.88703 -62.50302 30.52813 13.46944 -21.97117 -2.62633 0.00000 -0.00000 -44.81900 -0.00000 0.00000 0.00000 115.73425 40.52416 100.92092 -21.86387 32.82284 -6.51190 -0.00000 0.00000 -39.46560
0.00000 0.98547 0.00000 -9.25304 -11.52264 20.55819 0.00000 -0.00000 0.00000 -12.83294 1.79546 -51.66584 4.34487 12.60570 37.90986 0.09479 2.54042 -7.32889 0.00053 0.14907 0.40957 0.00000 -0.00000 0.00000 22.94229 8.81228 -16.34863 -1.02880 -6.45193 18.10148 -0.61769 -7.21789 -19.19736 -0.38397 3.97936 -11.01860 -0.30057 0.22403 19.63300 -1.97885 -0.03802 10.20480 -1.91777 -0.07365 0.01574 2.43215 8.00784 -11.56230 -6.24506 9.99963 -14.56230 -2.23846 5.01273 -2.28308 -0.00000 -0.00000 0.00000 -91.49989 -61.63861 24.18501 10.75538 -17.91233 -1.69992 0.00000 -0.00000 -40.58670 -0.00000 -0.00000 0.00000 115.62950 38.64774 101.41326 -21.43042 32.32731 -6.27853 -0.00000 0.00000 -41.40420
